<svg width="12" height="12" viewBox="0 0 12 12" fill="none" xmlns="http://www.w3.org/2000/svg">
    <path d="M4.55355 2.724C4.85255 1.849 6.06155 1.8225 6.41605 2.6445L6.44605 2.7245L6.84955 3.9045C6.94202 4.17512 7.09145 4.42276 7.28777 4.63071C7.48408 4.83867 7.72271 5.00211 7.98755 5.11L8.09605 5.1505L9.27605 5.5535C10.1511 5.8525 10.1776 7.0615 9.35605 7.416L9.27605 7.446L8.09605 7.8495C7.82534 7.94191 7.57761 8.09131 7.36956 8.28763C7.16152 8.48394 6.998 8.7226 6.89005 8.9875L6.84955 9.0955L6.44655 10.276C6.14755 11.151 4.93855 11.1775 4.58455 10.356L4.55355 10.276L4.15055 9.096C4.05814 8.82529 3.90874 8.57755 3.71242 8.36951C3.51611 8.16146 3.27745 7.99795 3.01255 7.89L2.90455 7.8495L1.72455 7.4465C0.849052 7.1475 0.822552 5.9385 1.64455 5.5845L1.72455 5.5535L2.90455 5.1505C3.17517 5.05803 3.42281 4.9086 3.63076 4.71229C3.83872 4.51597 4.00216 4.27735 4.11005 4.0125L4.15055 3.9045L4.55355 2.724ZM5.50005 3.047L5.09705 4.227C4.95625 4.63965 4.72719 5.01665 4.42582 5.33175C4.12445 5.64684 3.75803 5.89246 3.35205 6.0515L3.22705 6.097L2.04705 6.5L3.22705 6.903C3.6397 7.0438 4.0167 7.27287 4.3318 7.57423C4.6469 7.8756 4.89251 8.24203 5.05155 8.648L5.09705 8.773L5.50005 9.953L5.90305 8.773C6.04386 8.36035 6.27292 7.98335 6.57428 7.66825C6.87565 7.35316 7.24208 7.10754 7.64805 6.9485L7.77305 6.9035L8.95305 6.5L7.77305 6.097C7.3604 5.9562 6.9834 5.72713 6.6683 5.42577C6.35321 5.1244 6.10759 4.75797 5.94855 4.352L5.90355 4.227L5.50005 3.047ZM9.50005 1C9.59359 1 9.68526 1.02624 9.76463 1.07574C9.844 1.12523 9.9079 1.196 9.94905 1.28L9.97305 1.3385L10.1481 1.8515L10.6616 2.0265C10.7553 2.05835 10.8375 2.11731 10.8977 2.19591C10.9579 2.27451 10.9934 2.36921 10.9997 2.46801C11.006 2.56681 10.9829 2.66527 10.9332 2.75089C10.8835 2.83652 10.8095 2.90547 10.7206 2.949L10.6616 2.973L10.1486 3.148L9.97355 3.6615C9.94165 3.75521 9.88264 3.83735 9.80401 3.8975C9.72538 3.95764 9.63067 3.9931 9.53187 3.99936C9.43307 4.00563 9.33464 3.98242 9.24904 3.93269C9.16345 3.88296 9.09454 3.80893 9.05105 3.72L9.02705 3.6615L8.85205 3.1485L8.33855 2.9735C8.24481 2.94165 8.16264 2.88269 8.10244 2.80409C8.04224 2.72549 8.00673 2.63079 8.00041 2.53199C7.99409 2.43319 8.01725 2.33473 8.06694 2.24911C8.11664 2.16348 8.19063 2.09453 8.27955 2.051L8.33855 2.027L8.85155 1.852L9.02655 1.3385C9.06027 1.23971 9.12405 1.15395 9.20897 1.09325C9.29389 1.03254 9.39567 0.999937 9.50005 1Z"
          fill="#111111"/>
</svg>
