<svg width="16" height="16" viewBox="0 0 16 16" fill="none" xmlns="http://www.w3.org/2000/svg">
    <path d="M9.30219 1.01125L8.17395 6.93902L12.2612 6.95277L6.6977 14.9888L7.82595 8.46725L3.73895 8.453L9.30219 1.01125ZM9.30295 0.0112655C9.27595 0.0112655 9.24897 0.0122499 9.22247 0.0142343C9.04597 0.0284999 8.92895 0.0874999 8.79022 0.18075C8.71209 0.232834 8.64166 0.295611 8.58097 0.36725C8.56274 0.388755 8.54555 0.411114 8.52945 0.43425L2.9262 7.85C2.70495 8.15325 2.67245 8.55352 2.84245 8.88802C3.0122 9.22252 3.35545 9.43451 3.7317 9.43727L6.6182 9.45827L5.7107 14.805C5.62445 15.2645 5.86945 15.7225 6.3007 15.907C6.42603 15.9609 6.56103 15.9886 6.69744 15.9885C7.01169 15.9885 7.26994 15.8415 7.4637 15.576L13.074 7.54C13.2952 7.23673 13.3275 6.83598 13.1577 6.50198C12.988 6.16748 12.6447 5.95547 12.2685 5.95273L9.38195 5.94773L10.2797 1.24648C10.2987 1.16952 10.3083 1.09052 10.3082 1.01123C10.3082 0.470234 9.87745 0.0292343 9.33845 0.0117343C9.32647 0.0112343 9.3147 0.0112343 9.30297 0.0112343L9.30295 0.0112655Z"
          fill="#DE7C00"/>
</svg>
