<svg width="12" height="12" viewBox="0 0 12 12" fill="none" xmlns="http://www.w3.org/2000/svg">
    <path d="M6 3.221C5.323 2.74794 4.54161 2.44568 3.7225 2.34C3.13015 2.22098 2.52657 2.16699 1.9225 2.179C1.77677 2.18878 1.64022 2.25365 1.54058 2.36044C1.44094 2.46723 1.38567 2.60794 1.386 2.754L1.375 8.2005C1.375 8.27643 1.39003 8.35161 1.41924 8.4217C1.44845 8.49179 1.49125 8.55541 1.54518 8.60886C1.5991 8.66232 1.66308 8.70457 1.73342 8.73317C1.80376 8.76178 1.87907 8.77616 1.955 8.7755C2.54841 8.76803 3.14092 8.82385 3.7225 8.942C4.5425 9.044 5.3245 9.347 6 9.8225C6.6755 9.347 7.4575 9.044 8.2775 8.942C8.85908 8.82385 9.45159 8.76803 10.045 8.7755C10.1209 8.77616 10.1962 8.76178 10.2666 8.73317C10.3369 8.70457 10.4009 8.66232 10.4548 8.60886C10.5087 8.55541 10.5515 8.49179 10.5808 8.4217C10.61 8.35161 10.625 8.27643 10.625 8.2005L10.6145 2.754C10.6148 2.60786 10.5595 2.46708 10.4597 2.36028C10.36 2.25348 10.2233 2.18866 10.0775 2.179C9.47343 2.16699 8.86985 2.22098 8.2775 2.34C7.45839 2.44568 6.677 2.74794 6 3.221ZM6 9.8225V3.221"
          stroke="#111111" stroke-width="0.75" stroke-linecap="round" stroke-linejoin="round"/>
</svg>
