<svg width="64" height="64" viewBox="0 0 64 64" fill="none" xmlns="http://www.w3.org/2000/svg">
    <path d="M42 32C44.3734 32 46.6935 32.7038 48.6669 34.0224C50.6402 35.3409 52.1783 37.2151 53.0866 39.4078C53.9948 41.6005 54.2325 44.0133 53.7694 46.3411C53.3064 48.6689 52.1635 50.8071 50.4853 52.4853C48.8071 54.1635 46.6689 55.3064 44.3411 55.7694C42.0133 56.2324 39.6005 55.9948 37.4078 55.0866C35.2151 54.1783 33.3409 52.6402 32.0224 50.6668C30.7038 48.6935 30 46.3734 30 44C30 40.8174 31.2643 37.7652 33.5147 35.5147C35.7652 33.2643 38.8174 32 42 32ZM42 28C38.8355 28 35.7421 28.9384 33.1109 30.6965C30.4797 32.4546 28.4289 34.9534 27.2179 37.8771C26.0069 40.8007 25.6901 44.0177 26.3074 47.1214C26.9248 50.2251 28.4487 53.0761 30.6863 55.3137C32.9239 57.5513 35.7749 59.0752 38.8786 59.6926C41.9823 60.3099 45.1993 59.9931 48.1229 58.7821C51.0466 57.5711 53.5454 55.5203 55.3035 52.8891C57.0616 50.2579 58 47.1645 58 44C58 39.7565 56.3143 35.6869 53.3137 32.6863C50.3131 29.6857 46.2435 28 42 28Z"
          fill="currentColor"/>
    <path d="M52 8H12C10.9391 8 9.92172 8.42143 9.17157 9.17157C8.42143 9.92172 8 10.9391 8 12V52C8 53.0609 8.42143 54.0783 9.17157 54.8284C9.92172 55.5786 10.9391 56 12 56H20V52H12V24H56V12C56 10.9391 55.5786 9.92172 54.8284 9.17157C54.0783 8.42143 53.0609 8 52 8ZM12 20V12H52V20H12Z"
          fill="currentColor"/>
    <path d="M38 38V50L48 44L38 38Z" fill="currentColor"/>
</svg>
